<?xml version="1.0" encoding="utf-8"?>
<!-- Generator: Adobe Illustrator 23.0.2, SVG Export Plug-In . SVG Version: 6.00 Build 0)  -->
<svg version="1.1" id="Layer_1" xmlns="http://www.w3.org/2000/svg" xmlns:xlink="http://www.w3.org/1999/xlink" x="0px" y="0px"
	 viewBox="0 0 1280 1024" style="enable-background:new 0 0 1280 1024;" xml:space="preserve">
<style type="text/css">
	.st0{fill:#262261;}
	.st1{fill:url(#SVGID_1_);}
	.st2{fill:url(#SVGID_2_);}
	.st3{fill:url(#SVGID_3_);}
	.st4{fill:url(#SVGID_4_);}
	.st5{fill:url(#SVGID_5_);}
	.st6{fill:url(#SVGID_6_);}
	.st7{fill:url(#SVGID_7_);}
	.st8{fill:url(#SVGID_8_);}
	.st9{fill:url(#SVGID_9_);}
	.st10{fill:url(#SVGID_10_);}
	.st11{fill:url(#SVGID_11_);}
	.st12{fill:url(#SVGID_12_);}
	.st13{fill:#FDBD2B;}
	.st14{fill:#FBE26B;}
	.st15{fill:#EF8A49;}
	.st16{fill:#626567;}
	.st17{fill:url(#SVGID_13_);}
	.st18{fill:#3A3C3F;}
	.st19{opacity:0.9;fill:#B2B4B7;}
	.st20{fill:url(#SVGID_14_);}
	.st21{fill:#C1C3C4;}
	.st22{fill:#223C76;}
	.st23{fill:#0E8DCD;}
	.st24{fill:#FFFFFF;}
	.st25{fill:url(#SVGID_15_);}
	.st26{fill:#EC1D2E;}
	.st27{fill:#EAAF21;}
	.st28{opacity:0.7;fill:#C8E8EA;}
	.st29{fill:url(#SVGID_16_);}
	.st30{fill:url(#SVGID_17_);}
	.st31{fill:url(#SVGID_18_);}
	.st32{fill:#DEDEDF;}
	.st33{opacity:0.5;fill:#FFF1BA;}
</style>
<g>
	<path class="st0" d="M1092.3,770.9V601.1l20-88.8L911,512.6c-0.2-0.3-0.4-0.6-0.5-0.8c7.8,0.3,15.6,0.5,23.5,0.5
		c55.7,0,100.1-11.1,133-33.4c7-4.7,13.1-10,18.6-15.7l-0.4,46.5h73.7l2.3-288.8h-73.7l-0.6,70.5c-16.4-21.7-37.4-39-63.1-51.9
		c-27.7-13.9-56.8-20.9-87.2-20.9c-11.7,0-22.6,1.1-32.9,3.4c-4.5,1-9.1,2.3-13.8,3.8l-0.8-11.4l-200.6,6.5l1.3,36.9
		c-9.8-9.8-21.3-18-34.7-24.4c-19.5-9.4-40.4-14.1-62.7-14.1c-26.4,0-55.2,7.4-86.2,22c-5.7-4-11.8-7.6-18.4-10.7
		c-19.4-9.3-40.2-14-62.4-14c-28.7,0-60.2,8.7-94.5,26.1l0.9,31.7c-12-15.4-26.6-28.2-44-38.3c-22.7-13.2-46.9-19.8-72.6-19.8
		c-26,0-50.4,6.6-73.3,19.8c-22.9,13.2-41.3,31-55,53.3C73,311.7,66.1,335.5,66.1,361c0,25.5,6.9,49.5,20.6,72
		c13.7,22.6,32.1,40.7,55,54.4c11.6,7,23.7,12.2,36.1,15.6c-18.9,5.3-38.7,13.1-59.2,23.5l9.2,318.3h91.6l-2.3-92
		c10.1,1.5,19.2,2.3,27.5,2.3c25.9,0,49.8-5.8,71.7-17.4c12.5-6.6,23.4-14.6,32.8-24c0,0.6-0.1,1.1-0.1,1.7
		c0,18.2,4.9,35.3,14.7,51.4c9.8,16.1,22.9,29.1,39.3,38.9c16.4,9.8,33.8,14.7,52.4,14.7c18.4,0,35.6-4.8,51.8-14.4
		c13.1-7.8,23.9-17.8,32.8-29.8l0.4,40.2h54l-0.5-51.6l7.3,0.5c4,12.1,10.6,22.9,19.8,32.7c9.3,9.7,20.2,17.3,32.7,22.8
		c12.5,5.5,25.2,8.2,38.2,8.2v-54c-7.9,0-14.9-2.1-21.1-6.2c-6.1-4.1-10.8-9.9-14-17.3c11.2-6.8,19.9-15.8,26.3-27
		c5.1-9,8.1-19,9.1-30.1l0.6,170.3l90.7-4.1l0-12.8l36.4,14.9l20.9-51.9c0.7,1.3,1.3,2.5,2,3.7c0,0,2,0.6,5.7,1.3
		c-0.3,0.7-0.6,1.4-0.8,2.1c-0.1,0.3-0.2,0.6-0.3,0.9c0,0.1-0.1,0.2-0.1,0.3c-0.3,0.8-0.6,1.6-0.9,2.4c0,0,0,0,0,0
		c-0.6,1.6-1.1,3.4-1.7,5.2c0,0,0,0,0,0c-0.2,0.8-0.4,1.6-0.6,2.4c0,0,0,0,0,0c-0.4,1.7-0.9,3.4-1.2,5.2c0,0,0,0,0,0
		c0,0.2-0.1,0.3-0.1,0.5c0,0.1,0,0.1,0,0.2c-0.1,0.6-0.2,1.2-0.3,1.7c0,0,0,0,0,0c-0.3,1.7-0.6,3.5-0.8,5.3c0,0,0,0,0,0
		c-0.1,0.8-0.2,1.7-0.3,2.5c0,0,0,0,0,0c-0.2,1.8-0.3,3.6-0.4,5.4c0,0,0,0,0,0c0,0.8-0.1,1.7-0.1,2.6c0,0,0,0,0,0
		c0,1.1-0.1,2.3,0,3.4c0,0,8.3,3.5,20.5,3.5c1,0,1.9,0,2.9,0c-2.9,12.2-1.2,35,27.5,70.6c0,0,32.1-41.7,24.8-70.1
		c2.8-0.1,5.3-0.4,7.4-0.8c0,0,0,0,0,0c0.4-0.1,0.7-0.1,1.1-0.2c0.7-0.1,1.3-0.3,1.9-0.4c0.2,0,0.3-0.1,0.5-0.1
		c0.8-0.2,1.6-0.4,2.2-0.5c0,0,0.1,0,0.1,0c1.4-0.4,2.3-0.7,2.8-0.9c0,0,0,0,0.1,0c0.2-0.1,0.3-0.1,0.3-0.1c0-1.2,0-2.4,0-3.6
		c0,0,0,0,0,0c0-0.6,0-1.3,0-1.9c0-0.1,0-0.2,0-0.3c0-0.1,0-0.2,0-0.4c0,0,0,0,0,0c-0.1-1.9-0.2-3.7-0.3-5.5c0,0,0,0,0,0
		c-0.1-0.8-0.2-1.6-0.2-2.5c0,0,0,0,0,0c-0.2-1.9-0.4-3.7-0.7-5.4c0,0,0,0,0,0c-0.1-0.4-0.1-0.8-0.2-1.1c0-0.3-0.1-0.5-0.1-0.8
		c0-0.1-0.1-0.3-0.1-0.4c0,0,0,0,0,0c-0.4-1.9-0.7-3.6-1.2-5.3c0,0,0,0,0,0c-0.2-0.8-0.4-1.6-0.6-2.4c0,0,0,0,0,0
		c-0.6-2.1-1.2-4-1.8-5.8c-0.2-0.6-0.4-1.2-0.6-1.8c0,0,0-0.1,0-0.1c-0.1-0.3-0.2-0.5-0.3-0.8c-0.3-0.8-0.6-1.6-0.9-2.4
		c2.6-0.5,3.9-0.8,3.9-0.8c0.1-0.1,0.2-0.3,0.3-0.4l13.7,51l57.2-13.7v10.3h215.2v-91.6H1092.3z"/>
	<g>
		<g>
			<linearGradient id="SVGID_1_" gradientUnits="userSpaceOnUse" x1="796.1306" y1="540.3987" x2="796.1306" y2="260.2183">
				<stop  offset="0" style="stop-color:#F0E924"/>
				<stop  offset="1" style="stop-color:#8BC53F"/>
			</linearGradient>
			<path class="st1" d="M901.4,430.6v76l-200.6,4.6l-9.9-288.8l200.6-6.5l5.3,76l-128.4,1.5l1.5,30l106.8-2.3l3.8,76l-106,2.3
				l1.9,36.1L901.4,430.6z"/>
			<path class="st0" d="M690.5,522l-10.6-309.9l221.5-7.1l6.8,97.4l-128.7,1.5l0.4,8.7l106.8-2.3l4.9,97.2l-106,2.3l0.8,14.7
				l125.6-5V517L690.5,522z M701.8,232.6l9.2,267.7l179.8-4.1v-54.6l-124.5,4.9l-3-57.5l106-2.3l-2.7-54.8l-106.8,2.3l-2.6-51.3
				l128.2-1.5l-3.8-54.6L701.8,232.6z"/>
		</g>
		<g>
			<linearGradient id="SVGID_2_" gradientUnits="userSpaceOnUse" x1="994.484" y1="540.3987" x2="994.484" y2="260.2183">
				<stop  offset="0" style="stop-color:#F0E924"/>
				<stop  offset="1" style="stop-color:#8BC53F"/>
			</linearGradient>
			<path class="st2" d="M1026.2,241c27.7,13.9,50.1,33,67.1,57.2c17,24.2,25.5,51.1,25.5,80.7c0,45.4-16.5,79.2-49.4,101.5
				c-32.9,22.3-77.3,33.4-133,33.4c-22.3,0-44.3-1.3-66.1-3.8l3-275.5c11.6-5.1,22.6-8.7,32.9-11c10.3-2.3,21.2-3.4,32.9-3.4
				C969.4,220.1,998.5,227.1,1026.2,241z M1036.3,367.2c0-12.9-3.6-24.2-10.8-33.8c-7.2-9.6-16.6-17-28.1-22.2
				c-11.5-5.2-23.4-7.8-35.5-7.8c-6.3,0-11.7,0.5-16,1.5v128.8C1006.1,434.9,1036.3,412.8,1036.3,367.2z"/>
			<path class="st0" d="M936.3,524.4c-22.6,0-45.2-1.3-67.3-3.9l-9.5-1.1l3.2-291.9l6.3-2.7c12.2-5.3,23.9-9.2,34.8-11.6
				c11-2.4,22.8-3.7,35.2-3.7c31.9,0,62.9,7.4,92,22h0c29.2,14.7,53.1,35,71,60.6c18.2,25.9,27.4,55.1,27.4,86.8
				c0,48.9-18.2,86-54.1,110.2C1040.7,512.6,994,524.4,936.3,524.4z M880.9,500.5c18.3,1.8,36.9,2.7,55.4,2.7
				c53.3,0,96.1-10.6,127.1-31.6c30.1-20.4,44.7-50.7,44.7-92.7c0-27.3-7.9-52.4-23.5-74.7c-15.9-22.6-37.1-40.7-63.2-53.8
				c-26.1-13.1-53.9-19.8-82.4-19.8c-10.8,0-21.1,1.1-30.6,3.2c-7.7,1.7-16,4.3-24.6,7.8L880.9,500.5z M950.5,444.3
				c-1.6,0-3.3,0-4.9-0.1l-10.4-0.2V296.4l8.2-1.9c5.2-1.2,11.2-1.8,18.4-1.8c13.6,0,27,2.9,39.9,8.7c13.1,5.9,24,14.5,32.3,25.5
				c8.6,11.5,12.9,25,12.9,40.2c0,22.5-6.7,40.5-20,53.4C1010.9,436.3,985.2,444.3,950.5,444.3z M956.4,314.1v109
				c25.8-0.8,44.5-6.6,55.7-17.6c9.1-9,13.6-21.5,13.6-38.3c0-10.7-2.8-19.6-8.7-27.5c-6.2-8.2-14-14.4-24-18.9
				c-10.1-4.5-20.6-6.9-31.2-6.9C959.9,313.9,958.1,314,956.4,314.1z"/>
		</g>
		<g>
			<linearGradient id="SVGID_3_" gradientUnits="userSpaceOnUse" x1="1125.5814" y1="540.3987" x2="1125.5814" y2="260.2183">
				<stop  offset="0" style="stop-color:#F0E924"/>
				<stop  offset="1" style="stop-color:#8BC53F"/>
			</linearGradient>
			<path class="st3" d="M1089.9,222.4h73.7l-2.3,288.8h-73.7L1089.9,222.4z"/>
			<path class="st0" d="M1171.8,521.8h-94.9l2.4-310h94.9L1171.8,521.8z M1098.3,500.6h52.5l2.1-267.6h-52.5L1098.3,500.6z"/>
		</g>
		<g>
			<linearGradient id="SVGID_4_" gradientUnits="userSpaceOnUse" x1="610.8862" y1="540.3987" x2="610.8862" y2="260.2183">
				<stop  offset="0" style="stop-color:#F0E924"/>
				<stop  offset="1" style="stop-color:#8BC53F"/>
			</linearGradient>
			<path class="st4" d="M657.4,234.9c19.5,9.4,35.2,22.3,46.9,38.8c11.8,16.5,17.7,35,17.7,55.5c0,19.5-5.2,37.5-15.6,54
				c-10.4,16.5-24.6,29.5-42.7,39.1c-18.1,9.6-37.9,14.4-59.5,14.4c-6.8,0-14.4-0.6-22.8-1.9l1.9,76.4h-76l-7.6-264.1
				c34.5-17.5,66.1-26.2,95-26.2C617,220.9,637.9,225.5,657.4,234.9z M597.8,368.7c8.1,0,15.9-1.8,23.4-5.3
				c7.5-3.5,13.5-8.4,18-14.4c4.6-6.1,6.8-12.7,6.8-19.8c0-12.4-4.6-22.7-13.7-31c-9.1-8.2-19.8-12.3-31.9-12.3
				c-7.6,0-14.9,1.9-22,5.7l1.5,73.7C585.7,367.5,591.7,368.7,597.8,368.7z"/>
			<path class="st0" d="M594.2,521.8H497l-8.1-281.1l6-3c35.8-18.2,69.4-27.4,99.8-27.4c23.8,0,46.4,5.1,67.3,15.1h0
				c21,10.1,38.2,24.3,51,42.1c13,18.2,19.7,39,19.7,61.6c0,21.4-5.8,41.5-17.2,59.6c-11.3,18-27.1,32.4-46.7,42.8
				c-19.6,10.4-41.3,15.7-64.4,15.7c-3.8,0-7.7-0.2-11.9-0.5L594.2,521.8z M517.6,500.6h54.8l-1.9-78.2l12.5,1.9
				c7.8,1.2,14.9,1.8,21.2,1.8c19.7,0,38-4.4,54.5-13.2c16.4-8.7,29.4-20.6,38.8-35.4c9.4-14.9,13.9-30.7,13.9-48.3
				c0-18.4-5.1-34.5-15.7-49.3c-10.7-14.9-25.1-26.8-42.9-35.4c-18-8.6-37.5-13-58.1-13c-25.4,0-53.7,7.4-84.2,22.1L517.6,500.6z
				 M597.8,379.3c-7.4,0-14.7-1.4-21.7-4.1l-6.6-2.6l-1.8-87.3l5.7-3.1c8.6-4.6,17.7-7,27.1-7c14.8,0,27.9,5.1,39,15.1
				c11.4,10.3,17.2,23.4,17.2,38.8c0,9.4-3,18.2-9,26.1c-5.6,7.4-13,13.4-22,17.7C616.8,377.1,607.4,379.3,597.8,379.3z
				 M590.4,357.3c2.5,0.5,4.9,0.7,7.4,0.7c6.6,0,12.7-1.4,18.8-4.3c5.9-2.8,10.6-6.5,14.1-11.2c3.2-4.2,4.7-8.6,4.7-13.4
				c0-9.4-3.3-16.9-10.2-23.1c-7.2-6.5-15.3-9.6-24.8-9.6c-3.9,0-7.6,0.6-11.3,1.9L590.4,357.3z"/>
		</g>
	</g>
	<g>
		<g>
			<linearGradient id="SVGID_5_" gradientUnits="userSpaceOnUse" x1="216.5795" y1="182.2364" x2="216.5795" y2="490.107">
				<stop  offset="0" style="stop-color:#FFF23E"/>
				<stop  offset="1" style="stop-color:#F05A28"/>
			</linearGradient>
			<path class="st5" d="M144.2,489c-22.9-13.7-41.3-31.9-55-54.4c-13.7-22.6-20.6-46.6-20.6-72c0-25.5,6.9-49.3,20.6-71.6
				c13.7-22.3,32.1-40.1,55-53.3c22.9-13.2,47.4-19.8,73.3-19.8c25.7,0,49.9,6.6,72.6,19.8c22.7,13.2,40.8,30.9,54.2,53.1
				c13.5,22.2,20.2,46.1,20.2,71.8c0,26-6.8,50.2-20.2,72.8c-13.5,22.6-31.6,40.6-54.2,54.1c-22.7,13.5-46.9,20.2-72.6,20.2
				C191.6,509.6,167.1,502.8,144.2,489z M252.1,424.6c11.2-6.3,20.2-14.9,26.8-25.7c6.7-10.8,10-22.9,10-36.3c0-13.1-3.3-25-10-35.5
				c-6.7-10.6-15.7-18.8-27-24.8c-11.3-5.9-24-8.9-37.8-8.9c-13.1,0-25,3-35.7,8.9c-10.7,5.9-19.1,14.1-25.1,24.6
				c-6,10.5-9.1,22.2-9.1,35.3c0,13.6,3.1,25.9,9.3,36.9c6.2,11,14.6,19.5,25.3,25.7c10.7,6.2,22.9,9.3,36.5,9.3
				C228.6,434,240.9,430.9,252.1,424.6z"/>
			<path class="st0" d="M217.5,520.2c-27.8,0-54.3-7.4-78.8-22.1l0,0c-24.3-14.6-44-34.1-58.6-58C65.4,416,58,389.9,58,362.6
				c0-27.3,7.5-53.3,22.2-77.2c14.6-23.7,34.4-42.9,58.7-56.9c24.5-14.1,50.9-21.3,78.6-21.3c27.5,0,53.7,7.2,77.9,21.3
				c24.1,14.1,43.6,33.2,58,56.8c14.4,23.8,21.8,49.8,21.8,77.3c0,27.8-7.3,54.1-21.7,78.2c-14.3,24-33.8,43.4-57.9,57.7
				C271.3,512.9,245,520.2,217.5,520.2z M217.5,228.4c-24,0-46.9,6.2-68,18.4c-21.3,12.3-38.5,29-51.3,49.7
				c-12.6,20.5-19,42.7-19,66.1c0,23.4,6.4,45.8,19.1,66.5c12.8,21,30.1,38.1,51.4,50.9l0,0c21.1,12.7,44,19.1,67.9,19.1
				c23.7,0,46.3-6.3,67.2-18.7c21-12.5,38.1-29.5,50.6-50.4c12.4-20.8,18.7-43.5,18.7-67.3c0-23.6-6.3-45.9-18.7-66.3
				c-12.5-20.6-29.5-37.2-50.5-49.5C263.8,234.5,241.2,228.4,217.5,228.4z M215.3,444.6c-15.4,0-29.5-3.6-41.8-10.7
				c-12.3-7.1-22.2-17.1-29.3-29.7c-7-12.5-10.6-26.7-10.6-42.1c0-14.9,3.5-28.6,10.5-40.7c7-12.1,16.8-21.7,29.2-28.5
				c12.3-6.8,26-10.2,40.9-10.2c15.5,0,29.9,3.4,42.7,10.1c13,6.8,23.4,16.4,31.1,28.5c7.7,12.3,11.7,26.1,11.7,41.2
				c0,15.3-3.9,29.4-11.6,41.9c-7.6,12.3-17.9,22.2-30.7,29.4l0,0C244.5,441,230.4,444.6,215.3,444.6z M214.1,304
				c-11.2,0-21.5,2.5-30.6,7.6c-9.1,5-16,11.8-21.1,20.6c-5.1,8.9-7.6,18.7-7.6,30c0,11.9,2.6,22.2,7.9,31.7
				c5.3,9.4,12.3,16.5,21.4,21.7c9.2,5.3,19.4,7.8,31.2,7.8c11.6,0,22-2.6,31.7-8.1l0,0c9.7-5.5,17.2-12.7,23-22
				c5.7-9.2,8.4-19.3,8.4-30.7c0-11.2-2.7-20.9-8.4-29.9c-5.7-9.1-13.2-15.9-23-21C237.3,306.5,226.2,304,214.1,304z"/>
		</g>
		<g>
			<linearGradient id="SVGID_6_" gradientUnits="userSpaceOnUse" x1="443.7986" y1="182.2364" x2="443.7986" y2="490.107">
				<stop  offset="0" style="stop-color:#FFF23E"/>
				<stop  offset="1" style="stop-color:#F05A28"/>
			</linearGradient>
			<path class="st6" d="M490.1,232.1c19.4,9.3,35,22.2,46.7,38.6c11.7,16.4,17.6,34.8,17.6,55.2c0,19.4-5.2,37.3-15.5,53.7
				c-10.3,16.4-24.5,29.4-42.5,38.9c-18,9.6-37.7,14.4-59.2,14.4c-6.8,0-14.4-0.6-22.7-1.9l1.9,76h-75.6l-7.6-262.8
				c34.3-17.4,65.8-26.1,94.5-26.1C449.9,218.1,470.7,222.8,490.1,232.1z M430.8,365.2c8.1,0,15.8-1.8,23.2-5.3
				c7.4-3.5,13.4-8.3,18-14.4s6.8-12.6,6.8-19.7c0-12.3-4.5-22.6-13.6-30.8c-9.1-8.2-19.7-12.3-31.8-12.3c-7.6,0-14.9,1.9-21.9,5.7
				l1.5,73.3C418.8,364.1,424.7,365.2,430.8,365.2z"/>
			<path class="st0" d="M427.3,517.6h-96.8l-8-279.8l6-3c35.6-18.1,69-27.2,99.3-27.2c23.7,0,46.2,5.1,67,15l0,0
				c20.9,10.1,38,24.2,50.7,41.9c13,18.2,19.6,38.8,19.6,61.4c0,21.3-5.8,41.3-17.1,59.3c-11.3,17.9-26.9,32.2-46.5,42.6
				c-19.5,10.4-41.1,15.6-64.1,15.6c-3.7,0-7.7-0.2-11.8-0.5L427.3,517.6z M351.1,496.4h54.4l-1.9-77.8l12.5,1.9
				c7.7,1.2,14.8,1.8,21.1,1.8c19.6,0,37.8-4.4,54.2-13.1c16.3-8.7,29.2-20.5,38.5-35.2c9.3-14.8,13.9-30.5,13.9-48
				c0-18.3-5.1-34.4-15.6-49c-10.6-14.8-25-26.7-42.7-35.2c-17.9-8.6-37.3-12.9-57.8-12.9c-25.3,0-53.4,7.4-83.7,22L351.1,496.4z
				 M430.8,375.8c-7.4,0-14.6-1.4-21.6-4.1l-6.6-2.6l-1.8-86.9l5.7-3.1c8.6-4.6,17.6-6.9,26.9-6.9c14.7,0,27.8,5.1,38.9,15
				c11.4,10.3,17.1,23.3,17.1,38.7c0,9.4-3,18.1-8.9,26c-5.6,7.4-12.9,13.3-21.9,17.6C449.7,373.7,440.4,375.8,430.8,375.8z
				 M423.4,353.9c2.4,0.5,4.8,0.7,7.3,0.7c6.5,0,12.7-1.4,18.7-4.3c5.9-2.8,10.5-6.5,14-11.2c3.2-4.2,4.7-8.5,4.7-13.3
				c0-9.3-3.3-16.8-10.1-22.9c-7.1-6.4-15.2-9.6-24.7-9.6c-3.8,0-7.5,0.6-11.2,1.9L423.4,353.9z"/>
		</g>
	</g>
	<g>
		<g>
			<linearGradient id="SVGID_7_" gradientUnits="userSpaceOnUse" x1="1110.751" y1="977.543" x2="1110.751" y2="535.2861">
				<stop  offset="0" style="stop-color:#00425E"/>
				<stop  offset="1" style="stop-color:#00ADEE"/>
			</linearGradient>
			<path class="st7" d="M1218.4,772.5v91.6h-215.2V515.1h91.6v257.4H1218.4z"/>
			<path class="st0" d="M1229,874.7H992.5V504.5h112.8v257.3H1229V874.7z M1013.7,853.5h194v-70.4h-123.6V525.7h-70.4V853.5z"/>
		</g>
		<g>
			<linearGradient id="SVGID_8_" gradientUnits="userSpaceOnUse" x1="457.0262" y1="887.5212" x2="457.0262" y2="626.7781">
				<stop  offset="0" style="stop-color:#00425E"/>
				<stop  offset="1" style="stop-color:#00ADEE"/>
			</linearGradient>
			<path class="st8" d="M405.3,807.3c-16.4-9.8-29.5-22.8-39.3-38.9c-9.8-16.1-14.7-33.2-14.7-51.4c0-18.2,4.9-35.2,14.7-51.2
				c9.8-15.9,22.9-28.6,39.3-38.1c16.4-9.5,33.8-14.2,52.4-14.2c18.4,0,35.6,4.7,51.8,14.2c16.2,9.5,29.1,22.1,38.7,37.9
				c9.6,15.8,14.4,32.9,14.4,51.3c0,18.5-4.8,35.9-14.4,52c-9.6,16.1-22.5,29-38.7,38.6c-16.2,9.6-33.5,14.4-51.8,14.4
				C439.2,822,421.7,817.1,405.3,807.3z M482.4,761.2c8-4.5,14.4-10.6,19.2-18.4c4.8-7.7,7.2-16.4,7.2-25.9c0-9.4-2.4-17.8-7.2-25.4
				c-4.8-7.6-11.2-13.5-19.3-17.7c-8.1-4.2-17.1-6.3-27-6.3c-9.4,0-17.9,2.1-25.5,6.3c-7.7,4.2-13.6,10.1-18,17.5
				c-4.3,7.5-6.5,15.9-6.5,25.2c0,9.7,2.2,18.5,6.6,26.3c4.4,7.8,10.4,13.9,18.1,18.4c7.6,4.4,16.3,6.6,26.1,6.6
				C465.6,768,474.4,765.7,482.4,761.2z"/>
			<path class="st0" d="M457.7,832.6c-20.4,0-39.9-5.5-57.8-16.2c-17.8-10.7-32.2-24.9-42.9-42.5c-10.8-17.7-16.3-36.9-16.3-56.9
				c0-20.1,5.5-39.2,16.3-56.7c10.7-17.4,25.2-31.4,43-41.7c17.9-10.3,37.3-15.6,57.7-15.6c20.2,0,39.4,5.3,57.2,15.6
				c17.7,10.3,31.9,24.3,42.5,41.6c10.6,17.5,16,36.6,16,56.8c0,20.4-5.4,39.7-15.9,57.4c-10.5,17.6-24.8,31.8-42.4,42.3
				C497.2,827.2,477.9,832.6,457.7,832.6z M457.7,624.1c-16.6,0-32.4,4.3-47.1,12.8c-14.8,8.5-26.7,20.1-35.5,34.4
				c-8.7,14.2-13.1,29.5-13.1,45.6c0,16.4,4.3,31.4,13.2,45.9c8.9,14.6,20.9,26.4,35.7,35.3h0c14.6,8.8,30.4,13.2,46.9,13.2
				c16.3,0,32-4.4,46.4-13c14.6-8.7,26.4-20.4,35.1-34.9c8.6-14.4,12.9-30,12.9-46.5c0-16.3-4.3-31.7-12.9-45.8
				c-8.7-14.2-20.4-25.8-35-34.3C489.7,628.4,474.1,624.1,457.7,624.1z M456.1,778.6c-11.6,0-22.1-2.7-31.4-8
				c-9.3-5.3-16.7-12.9-22-22.3c-5.3-9.4-8-20-8-31.5c0-11.2,2.7-21.5,7.9-30.5c5.3-9.1,12.7-16.4,22-21.5
				c9.2-5.1,19.5-7.7,30.6-7.7c11.6,0,22.3,2.5,31.9,7.6c9.7,5.1,17.6,12.3,23.4,21.4c5.8,9.3,8.8,19.7,8.8,31
				c0,11.5-2.9,22.1-8.7,31.5c-5.7,9.3-13.4,16.7-23,22l0,0C478,775.8,467.4,778.6,456.1,778.6z M455.3,678.1
				c-7.6,0-14.3,1.6-20.4,5c-6,3.3-10.5,7.7-13.9,13.6c-3.4,5.9-5.1,12.4-5.1,19.9c0,7.9,1.7,14.8,5.3,21.1
				c3.5,6.2,8.1,10.9,14.1,14.4c6.1,3.5,12.9,5.2,20.8,5.2c7.8,0,14.7-1.8,21.1-5.4l0,0c6.5-3.6,11.5-8.4,15.3-14.7
				c3.8-6.1,5.6-12.7,5.6-20.4c0-7.4-1.8-13.8-5.5-19.7c-3.8-6-8.8-10.6-15.2-13.9C470.7,679.8,463.5,678.1,455.3,678.1z"/>
		</g>
		<g>
			<linearGradient id="SVGID_9_" gradientUnits="userSpaceOnUse" x1="617.7949" y1="887.5212" x2="617.7949" y2="626.7781">
				<stop  offset="0" style="stop-color:#00425E"/>
				<stop  offset="1" style="stop-color:#00ADEE"/>
			</linearGradient>
			<path class="st9" d="M673.1,770.4c6.1,4.1,13.1,6.2,21.1,6.2v54c-13,0-25.7-2.7-38.2-8.2c-12.5-5.5-23.4-13.1-32.7-22.8
				c-9.3-9.7-15.9-20.6-19.8-32.7l-7.3-0.5l0.5,51.6h-54l-2.2-193c6.3-3.6,15.4-6.4,27.4-8.5c12-2.1,23.8-3.1,35.5-3.1
				c19.6,0,36.3,3.2,49.9,9.5c13.7,6.3,24,15,31,26.2c7,11.2,10.5,24.1,10.5,38.9c0,14.4-3.2,27.2-9.6,38.3
				c-6.4,11.2-15.2,20.2-26.3,27C662.3,760.5,667,766.3,673.1,770.4z M595.7,714.2c3.1,1.3,6.6,1.9,10.5,1.9
				c5.6,0,11.1-1.2,16.5-3.5c5.4-2.3,9.8-5.6,13.2-9.7c3.4-4.1,5.1-8.8,5.1-14c0-4.3-1.2-8.5-3.6-12.7c-2.4-4.1-5.7-7.5-9.9-10
				c-4.1-2.5-8.6-3.8-13.5-3.8c-3.1,0-6.5,0.5-10.4,1.4c-3.9,0.9-6.7,1.9-8.5,3L595.7,714.2z"/>
			<path class="st0" d="M704.8,841.2h-10.6c-14.4,0-28.6-3.1-42.5-9.1c-13.7-6-25.9-14.5-36.1-25.2c-3.1-3.3-6-6.6-8.5-10.2
				l0.3,31.8h-75.2l-2.3-209.7l5.4-3.1c7.4-4.3,17.5-7.4,30.9-9.7c12.5-2.2,25.1-3.3,37.3-3.3c21.1,0,39.4,3.5,54.4,10.4
				c15.5,7.1,27.5,17.3,35.6,30.2c8.1,12.8,12.2,27.8,12.2,44.5c0,16.2-3.7,30.9-11,43.6c-5.5,9.7-12.7,18-21.4,24.8
				c1.7,2.1,3.7,3.9,5.9,5.4l0,0c4.4,3,9.3,4.4,15.1,4.4h10.6V841.2z M585.5,754.9l25.9,1.9l2.2,6.7c3.4,10.5,9.3,20.1,17.4,28.7
				c8.3,8.7,18.1,15.5,29.3,20.4c7.7,3.4,15.5,5.6,23.3,6.6v-33.2c-5.9-1.2-11.4-3.6-16.4-7l0,0c-7.8-5.3-13.8-12.6-17.8-21.8
				l-3.7-8.5l7.9-4.8c9.7-5.9,17.1-13.5,22.7-23.2c5.4-9.5,8.2-20.6,8.2-33.1c0-12.8-2.9-23.7-8.9-33.2c-6-9.5-14.6-16.7-26.5-22.2
				c-12.2-5.6-27.5-8.5-45.5-8.5c-11,0-22.4,1-33.7,3c-7.5,1.3-13.7,2.9-18.5,4.7l2,175.7H586L585.5,754.9z M606.2,726.7
				c-5.3,0-10.2-0.9-14.6-2.7l-6.5-2.7l-0.7-60.6l5.2-3.1c2.8-1.7,6.5-3,11.6-4.2c4.7-1.1,8.9-1.6,12.8-1.6c6.8,0,13.2,1.8,19,5.3
				c5.6,3.4,10.2,8,13.5,13.7c3.4,5.8,5.1,11.9,5.1,18.1c0,7.7-2.5,14.7-7.6,20.8c-4.5,5.4-10.3,9.7-17.2,12.7
				C620.2,725.3,613.2,726.7,606.2,726.7z M606.2,705.5C606.2,705.5,606.2,705.5,606.2,705.5c4.2,0,8.2-0.9,12.3-2.6
				c3.9-1.7,6.9-3.9,9.3-6.7c1.8-2.2,2.7-4.5,2.7-7.3c0-2.4-0.7-4.8-2.2-7.3c-1.5-2.6-3.6-4.7-6.2-6.3c-4.3-2.7-8.9-2.8-16-1.2
				c-0.1,0-0.1,0-0.2,0.1L606.2,705.5z"/>
		</g>
		<g>
			<linearGradient id="SVGID_10_" gradientUnits="userSpaceOnUse" x1="708.4214" y1="975.8088" x2="708.4214" y2="540.4492">
				<stop  offset="0" style="stop-color:#00425E"/>
				<stop  offset="1" style="stop-color:#00ADEE"/>
			</linearGradient>
			<path class="st10" d="M784.9,602.1l0.9,260.1l-90.7,4.1l-0.9-261.9l-385.7,2.3l-6.4-91.6l812.5-1.3l-20.6,91.6L784.9,602.1z"/>
			<path class="st0" d="M684.6,877.4l-0.9-262.4l-385,2.3l-7.9-112.8l837.2-1.3l-25.4,112.9l-307-3.3l0.9,259.5L684.6,877.4z
				 M704.8,593.8l0.9,261.5l69.5-3.2l-0.9-260.7l311.4,3.3l15.8-70.3l-787.9,1.2l4.9,70.3L704.8,593.8z"/>
		</g>
		<g>
			<linearGradient id="SVGID_11_" gradientUnits="userSpaceOnUse" x1="884.0578" y1="952.6217" x2="884.0578" y2="623.3631">
				<stop  offset="0" style="stop-color:#00425E"/>
				<stop  offset="1" style="stop-color:#00ADEE"/>
			</linearGradient>
			<path class="st11" d="M930.6,810.5l-86.6-0.3l-21.8,54.2l-68.2-28l111.8-228.1L934,609l80.1,242.1l-68.2,16.4L930.6,810.5z
				 M912.2,742.3L895.8,681l-24.5,61L912.2,742.3z"/>
			<path class="st0" d="M938.4,880.2l-15.9-59.1l-71.3-0.3L828,878.2l-88.5-36.3l119.7-244.2l82.4,0.8l86.1,260.2L938.4,880.2z
				 M836.9,799.5l101.9,0.4l14.8,54.8l46.9-11.3l-74.1-223.9l-53.9-0.5L768.5,830.9l47.8,19.6L836.9,799.5z M926,753.1l-70.4-0.6
				l42.2-105L926,753.1z M886.9,731.5l11.4,0.1l-4.6-17.2L886.9,731.5z"/>
		</g>
		<g>
			<linearGradient id="SVGID_12_" gradientUnits="userSpaceOnUse" x1="254.9459" y1="960.7888" x2="254.9459" y2="518.5319">
				<stop  offset="0" style="stop-color:#00425E"/>
				<stop  offset="1" style="stop-color:#00ADEE"/>
			</linearGradient>
			<path class="st12" d="M311,513.5c23.5,11.3,42.4,26.9,56.6,46.7c14.2,19.8,21.3,42.1,21.3,66.9c0,23.5-6.3,45.2-18.8,65
				c-12.5,19.8-29.7,35.6-51.5,47.2c-21.8,11.6-45.7,17.4-71.7,17.4c-8.2,0-17.4-0.8-27.5-2.3l2.3,92h-91.6L121,528.1
				c41.5-21.1,79.7-31.6,114.5-31.6C262.3,496.5,287.5,502.2,311,513.5z M239.1,674.7c9.8,0,19.2-2.1,28.2-6.4
				c9-4.3,16.3-10.1,21.7-17.4c5.5-7.3,8.2-15.3,8.2-23.8c0-15-5.5-27.4-16.5-37.3c-11-9.9-23.8-14.9-38.5-14.9
				c-9.2,0-18,2.3-26.6,6.9l1.8,88.8C224.6,673.3,231.8,674.7,239.1,674.7z"/>
			<path class="st0" d="M232.6,857H119.9l-9.6-335.3l6-3c42.8-21.7,83-32.7,119.3-32.7c28.3,0,55.3,6.1,80.1,18h0
				c25,12,45.4,28.9,60.6,50.1c15.4,21.6,23.3,46.2,23.3,73c0,25.4-6.9,49.2-20.4,70.7c-13.5,21.3-32.1,38.4-55.5,50.9
				c-23.3,12.4-49.1,18.6-76.6,18.6c-5.2,0-10.7-0.3-16.6-0.8L232.6,857z M140.5,835.8h70.4l-2.3-93.8l12.5,1.9
				c9.5,1.4,18.2,2.2,25.9,2.2c24.1,0,46.5-5.4,66.7-16.2c20.1-10.7,36.1-25.3,47.5-43.5c11.4-18,17.1-38,17.1-59.4
				c0-22.7-6.3-42.5-19.3-60.7c-13.1-18.3-30.7-32.9-52.5-43.3c-22-10.6-45.8-15.9-71-15.9c-31.3,0-66.1,9.2-103.7,27.5L140.5,835.8
				z M239.1,685.3c-8.6,0-17.2-1.6-25.4-4.8l-6.6-2.6l-2.1-102.4l5.7-3.1c10.1-5.4,20.7-8.1,31.6-8.1c17.3,0,32.6,5.9,45.6,17.6
				c13.3,12,20,27.2,20,45.2c0,10.9-3.5,21-10.4,30.2c-6.5,8.7-15.2,15.6-25.7,20.6C261.5,682.8,250.5,685.3,239.1,685.3z
				 M228.1,662.7c3.7,0.9,7.4,1.3,11.1,1.3c8.3,0,16-1.8,23.6-5.4c7.5-3.6,13.3-8.2,17.8-14.2c4.1-5.5,6.1-11.2,6.1-17.5
				c0-11.9-4.2-21.6-13-29.5c-9.1-8.2-19.3-12.1-31.4-12.1c-5.4,0-10.7,1-15.8,3L228.1,662.7z"/>
		</g>
	</g>
	<g>
		<g>
			<path class="st13" d="M865.9,892.3l54.3,0.6c29.1,35.3-25.2,105.7-25.2,105.7C834.8,923.9,865.9,892.3,865.9,892.3z"/>
			<path class="st14" d="M911.8,892.8l-37.3-0.4c-2.9,17.3-3.2,46.7,19.7,70.1C894.1,962.5,918.3,936.7,911.8,892.8z"/>
			<path class="st15" d="M893.8,927.6c0,0,9.9-12.7,10.7-34.8l-22.6-0.3C882.1,903.5,884.8,916.5,893.8,927.6z"/>
		</g>
		<g>
			<g>
				<g>
					<g>
						<path class="st16" d="M932.4,836.1l-19.4-0.2c0,0-18.3,26.5-17.7,66.8c0,0,10.8,4.6,26.7,4.6c15.9,0.3,26.8-4.1,26.8-4.1
							C950.2,862.9,932.4,836.1,932.4,836.1z"/>
						<g>
							
								<linearGradient id="SVGID_13_" gradientUnits="userSpaceOnUse" x1="1515.014" y1="1664.5076" x2="1528.5466" y2="1777.3984" gradientTransform="matrix(1 9.283720e-03 -9.283720e-03 1 -581.2089 -861.6277)">
								<stop  offset="0.4575" style="stop-color:#E4DFDE"/>
								<stop  offset="1" style="stop-color:#8AA79A"/>
							</linearGradient>
							<path class="st17" d="M941.2,854.7c-4.3-11.8-8.8-18.6-8.8-18.6l-19.4-0.2c0,0-4.7,6.8-9.3,18.8
								C912,856.3,924.8,857.5,941.2,854.7z"/>
							<path class="st18" d="M895.5,894.9c0,1.1-0.1,2.2-0.1,3.3c4.4,1.4,12.9,3.4,24.7,3.6c8.1,0.1,17.8-0.8,28.9-3.4
								c0-1.1,0-2.2-0.1-3.2C921.2,901.7,901.9,897,895.5,894.9z"/>
							<path class="st18" d="M896.3,884.6c-0.1,1.1-0.3,2.1-0.4,3.2c4.6,1.4,12.8,3.3,24.2,3.4c8,0.1,17.5-0.8,28.3-3.2
								c-0.1-1.1-0.2-2.1-0.3-3.2C921.9,890.9,903.4,886.8,896.3,884.6z"/>
							<path class="st18" d="M945.2,867.7c-0.3-1.1-0.5-2.1-0.8-3.1c-20.3,4.1-35.6,2-43.9,0c-0.3,1-0.6,2-0.9,3.1
								c4.8,1.2,11.8,2.4,20.7,2.5C927.5,870.2,935.8,869.5,945.2,867.7z"/>
							<path class="st18" d="M898,874.5c-0.2,1-0.4,2.1-0.6,3.1c4.8,1.3,12.5,2.9,22.9,3c7.6,0.1,16.7-0.7,27-3
								c-0.2-1-0.4-2.1-0.6-3.1C923,879.8,905.8,876.7,898,874.5z"/>
							<path class="st18" d="M942.3,857.7c-0.3-1.1-0.7-2.1-1-3.1c-16.4,2.8-29.2,1.7-37.5,0.1c-0.4,1-0.7,2-1.1,3.1
								c4.6,0.9,10.5,1.7,17.8,1.8C926.8,859.7,934.1,859.1,942.3,857.7z"/>
						</g>
						<path class="st19" d="M932.4,836.1l-19.4-0.2c0,0-18.3,26.5-17.7,66.8c0,0,0.8,0.3,2.2,0.8c-0.5-9.4,2-18.9,3.6-28
							c1.1-6,4-20.3,12.9-19.6c9.9,0.8,7.4,41.8,7.6,51.3c0.1,0,0.2,0,0.3,0c15.9,0.3,26.8-4.1,26.8-4.1
							C950.2,862.9,932.4,836.1,932.4,836.1z"/>
						<path class="st19" d="M932.4,836.1l-9.9-0.1c10,21.5,13.8,46.4,14.6,70.2c7.3-1.2,11.8-3,11.8-3
							C950.2,862.9,932.4,836.1,932.4,836.1z"/>
					</g>
					<g>
						<path class="st16" d="M865.8,835.4l-19.4-0.2c0,0-18.3,26.5-17.7,66.8c0,0,10.8,4.6,26.7,4.5c15.9,0.4,26.8-4.1,26.8-4.1
							C883.6,862.2,865.8,835.4,865.8,835.4z"/>
						<g>
							
								<linearGradient id="SVGID_14_" gradientUnits="userSpaceOnUse" x1="1448.3713" y1="1664.4818" x2="1461.9124" y2="1777.4431" gradientTransform="matrix(1 9.283720e-03 -9.283720e-03 1 -581.2089 -861.6277)">
								<stop  offset="0.4575" style="stop-color:#E4DFDE"/>
								<stop  offset="1" style="stop-color:#8AA79A"/>
							</linearGradient>
							<path class="st20" d="M874.6,854c-4.3-11.8-8.8-18.6-8.8-18.6l-19.4-0.2c0,0-4.8,6.9-9.3,18.9
								C845.3,855.7,858.2,856.9,874.6,854z"/>
							<path class="st18" d="M828.8,894.2c-0.1,1.1-0.1,2.2-0.1,3.3c4.4,1.4,12.9,3.4,24.7,3.5c8.1,0.1,17.8-0.8,28.9-3.4
								c0-1.1,0-2.2,0-3.2C854.6,901.1,835.2,896.3,828.8,894.2z"/>
							<path class="st18" d="M829.7,884c-0.1,1.1-0.2,2.2-0.4,3.2c4.6,1.4,12.8,3.3,24.2,3.4c8,0.1,17.5-0.7,28.3-3.2
								c-0.1-1.1-0.2-2.1-0.3-3.2C855.3,890.3,836.7,886.1,829.7,884z"/>
							<path class="st18" d="M878.5,867c-0.3-1.1-0.5-2.1-0.8-3.1c-20.3,4-35.6,2-43.9,0c-0.3,1-0.6,2.1-0.8,3.1
								c4.8,1.2,11.8,2.4,20.7,2.5C860.8,869.6,869.2,868.9,878.5,867z"/>
							<path class="st18" d="M831.4,873.9c-0.2,1-0.4,2.1-0.6,3.2c4.7,1.3,12.5,2.9,22.8,3c7.6,0.1,16.7-0.7,27-2.9
								c-0.2-1.1-0.4-2.1-0.6-3.1C856.4,879.2,839.2,876.1,831.4,873.9z"/>
							<path class="st18" d="M875.6,857.1c-0.4-1.1-0.7-2.1-1.1-3c-16.4,2.8-29.2,1.7-37.4,0.1c-0.4,1-0.7,2-1.1,3.1
								c4.6,0.9,10.5,1.7,17.8,1.8C860.1,859,867.5,858.5,875.6,857.1z"/>
						</g>
						<path class="st19" d="M865.8,835.4l-19.4-0.2c0,0-18.3,26.5-17.7,66.8c0,0,0.8,0.3,2.2,0.8c-0.5-9.3,2-18.9,3.6-28
							c1.1-6,4-20.3,13-19.6c9.9,0.8,7.4,41.7,7.6,51.3c0.1,0,0.2,0,0.3,0c15.9,0.4,26.8-4.1,26.8-4.1
							C883.6,862.2,865.8,835.4,865.8,835.4z"/>
						<path class="st19" d="M865.8,835.4l-9.9-0.1c10,21.5,13.8,46.4,14.6,70.2c7.3-1.2,11.8-3,11.8-3
							C883.6,862.2,865.8,835.4,865.8,835.4z"/>
					</g>
				</g>
				<g>
					<path class="st21" d="M982.2,634.4c-1.1-42.8-4.6-60-5.5-63.8c-4.8-37.8-68-136.5-73.4-142.5c-4.3-4.7-9.2-5.1-11.2-5
						c-2-0.1-6.9,0.2-11.3,4.8c-5.6,5.9-70.6,103.5-76.1,141.2c-1,3.7-4.8,20.9-6.7,63.6c-2.1,48.9,8.3,173.7,33.4,215.5
						c0,0,21.3,6.1,56.6,5.5c35.3,1.3,56.7-4.4,56.7-4.4C970.7,807.8,983.4,683.3,982.2,634.4z"/>
					<path class="st22" d="M900.1,736.4c-1.8-1.1-3.7-2-5.6-2.6l-9.7-0.1c-1.7,0.3-3.4,0.8-5,1.4c-4.4,3-12.2,12.5-11.4,41.8
						c0.9,32.2,16.5,127.3,19.4,123c2.9,4.4,21.4-90.4,21.7-122.6C909.8,750.7,904.2,740.4,900.1,736.4z"/>
					<path class="st23" d="M888.5,742.2c-0.9-0.8-1.8-1.4-2.8-1.8l-4.9,0c-0.9,0.2-1.7,0.5-2.5,1c-2.2,2.2-6.2,9.1-5.8,30.1
						c0.4,23.1,8,91.5,9.5,88.3c1.4,3.1,10.9-65,11.2-88.1C893.3,752.5,890.6,745.1,888.5,742.2z"/>
					<path class="st24" d="M878.4,797.2c-0.4-17-2.4-34.5-1.1-51.6c-1.5,4.5-2.8,11.9-2.6,24.2c0.2,11.2,2.1,33.1,4.2,52.3
						C878.7,813.9,878.5,805.6,878.4,797.2z"/>
					<g>
						
							<linearGradient id="SVGID_15_" gradientUnits="userSpaceOnUse" x1="1341.6005" y1="1348.6075" x2="1627.2458" y2="1348.6075" gradientTransform="matrix(1 9.283720e-03 -9.283720e-03 1 -581.2089 -861.6277)">
							<stop  offset="0.4575" style="stop-color:#E4DFDE"/>
							<stop  offset="1" style="stop-color:#8AA79A"/>
						</linearGradient>
						<path class="st25" d="M892,423c-2-0.1-6.9,0.2-11.3,4.8c-5.4,5.8-67.2,98.4-75.5,138c25.2,7.7,54.3,12.2,85.4,12.5
							c31,0.3,60.2-3.7,85.6-11c-7.6-39.8-67.6-133.6-72.9-139.4C898.9,423.3,894,423,892,423z"/>
						<path class="st26" d="M892,423c-2-0.1-6.9,0.2-11.3,4.8c-5.4,5.8-67.2,98.4-75.5,138c25.2,7.7,54.3,12.2,85.4,12.5
							c31,0.3,60.2-3.7,85.6-11c-7.6-39.8-67.6-133.6-72.9-139.4C898.9,423.3,894,423,892,423z"/>
					</g>
					<g>
						<path class="st24" d="M816.2,575.3c0,2.1-1.7,3.8-3.8,3.8c-2.1,0-3.8-1.7-3.7-3.8c0-2.1,1.7-3.8,3.8-3.7
							C814.5,571.5,816.2,573.2,816.2,575.3z"/>
						<path class="st24" d="M894.4,587.2c0,2.1-1.7,3.8-3.8,3.8c-2.1,0-3.7-1.7-3.7-3.8c0-2.1,1.7-3.7,3.8-3.7
							C892.7,583.4,894.4,585.1,894.4,587.2z"/>
						<path class="st24" d="M972.8,575.5c0,2.1-1.7,3.8-3.8,3.8c-2.1-0.1-3.8-1.7-3.8-3.8c0-2.1,1.7-3.8,3.8-3.7
							C971.2,571.8,972.9,573.4,972.8,575.5z"/>
						<path class="st24" d="M933.6,585.1c0,2.1-1.7,3.7-3.8,3.7c-2.1,0-3.8-1.7-3.8-3.8c0-2.1,1.7-3.8,3.8-3.7
							C931.9,581.4,933.6,583.1,933.6,585.1z"/>
						<path class="st24" d="M855.3,584.4c0,2.1-1.7,3.8-3.8,3.7c-2.1,0-3.8-1.7-3.7-3.8c0-2.1,1.7-3.8,3.8-3.7
							C853.6,580.6,855.3,582.3,855.3,584.4z"/>
					</g>
					<path class="st27" d="M931.9,657.3c-0.2,21.4-17.7,38.5-39,38.3c-21.4-0.2-38.5-17.7-38.3-39c0.2-21.3,17.7-38.5,39-38.3
						C915,618.5,932.1,635.9,931.9,657.3z"/>
					<path class="st28" d="M926,658.4c-0.2,18.1-15,32.6-33,32.4c-18.1-0.2-32.6-15-32.4-33c0.2-18.1,15-32.6,33-32.4
						C911.6,625.5,926.1,640.3,926,658.4z"/>
					
						<radialGradient id="SVGID_16_" cx="1470.3422" cy="1489.7832" r="49.3872" gradientTransform="matrix(1 9.283720e-03 -9.283720e-03 1 -581.2089 -861.6277)" gradientUnits="userSpaceOnUse">
						<stop  offset="0.1486" style="stop-color:#21697F"/>
						<stop  offset="0.491" style="stop-color:#03405F"/>
						<stop  offset="0.9801" style="stop-color:#000000"/>
					</radialGradient>
					<path class="st29" d="M922.7,657.4c-0.1,16.3-13.4,29.3-29.7,29.2c-16.2-0.2-29.3-13.4-29.1-29.7c0.2-16.2,13.5-29.3,29.7-29.1
						C909.8,627.8,922.8,641.1,922.7,657.4z"/>
					<g>
						
							<radialGradient id="SVGID_17_" cx="1456.0929" cy="1489.7802" r="46.8412" gradientTransform="matrix(1 9.283720e-03 -9.283720e-03 1 -581.2089 -861.6277)" gradientUnits="userSpaceOnUse">
							<stop  offset="0.2851" style="stop-color:#FFFFFF"/>
							<stop  offset="0.6912" style="stop-color:#6C6C6C"/>
							<stop  offset="1" style="stop-color:#000000"/>
						</radialGradient>
						<path class="st30" d="M872.6,661.3c-1.6-0.3-3.2-0.6-4.8-1c0.9,7.6,5.1,14.2,11.1,18.4c-3.9-4.7-6.3-10.7-6.3-17.2
							C872.6,661.4,872.6,661.4,872.6,661.3z"/>
						
							<radialGradient id="SVGID_18_" cx="1456.0936" cy="1489.7816" r="46.8123" gradientTransform="matrix(1 9.283720e-03 -9.283720e-03 1 -581.2089 -861.6277)" gradientUnits="userSpaceOnUse">
							<stop  offset="0.2851" style="stop-color:#FFFFFF"/>
							<stop  offset="0.6912" style="stop-color:#6C6C6C"/>
							<stop  offset="1" style="stop-color:#000000"/>
						</radialGradient>
						<path class="st31" d="M894.2,630.7c-13.9-0.1-25.4,10.5-26.5,24.2c1.9,0.3,3.8,0.6,5.6,0.9c2.7-11.8,13.3-20.6,25.9-20.5
							c5.5,0,10.6,1.8,14.8,4.7C909.2,634.4,902.1,630.8,894.2,630.7z"/>
					</g>
					<path class="st28" d="M846.8,580.2c-1.7-0.2-3.4-0.5-5.1-0.7c-5.5-1-10.9-2.5-16.4-3.6c-3.9,20.3-5.8,40.9-5.7,62
						c0.3,67.9,14.1,134.5,24.7,201.3c4.2,0.7,9.2,1.3,15.2,1.9c-5.2-61.9-13.5-123.6-15.2-185.8C843.7,630,844.3,605.1,846.8,580.2
						z"/>
					<path class="st32" d="M982.2,634.4c-1.1-42.8-4.6-60-5.5-63.8c-4.8-37.8-68-136.5-73.4-142.5c-4.3-4.7-9.2-5.1-11.2-5
						c-0.2,0-0.3,0-0.5,0c6.8,16.9,12.7,34.2,17.7,51.8c34.8,122.4,31.5,252.4,15.2,377.7c13-1.4,20.3-3.3,20.3-3.3
						C970.7,807.8,983.4,683.3,982.2,634.4z"/>
					<path class="st33" d="M840.7,569.9c2.4,0.4,4.8,0.7,7.2,0.9c1.1-8.7,2.4-17.5,4-26.2c5.3-28.8,12.5-57.3,19.6-85.7
						c-13.5,25.2-26.3,50.8-35.7,77.8c-3.4,9.9-6.2,19.8-8.5,29.7C831.7,567.7,836.1,569.1,840.7,569.9z"/>
				</g>
			</g>
		</g>
	</g>
</g>
</svg>
